<svg xmlns="http://www.w3.org/2000/svg" viewBox="0 0 400 400" width="400" height="400">
  <defs>
    <linearGradient id="bgGrad" x1="0%" y1="0%" x2="100%" y2="100%">
      <stop offset="0%" style="stop-color:#0D1117;stop-opacity:1" />
      <stop offset="100%" style="stop-color:#161B22;stop-opacity:1" />
    </linearGradient>
    <linearGradient id="greenGrad" x1="0%" y1="0%" x2="100%" y2="100%">
      <stop offset="0%" style="stop-color:#00E676;stop-opacity:1" />
      <stop offset="100%" style="stop-color:#00C853;stop-opacity:1" />
    </linearGradient>
    <linearGradient id="greenGrad2" x1="0%" y1="0%" x2="100%" y2="100%">
      <stop offset="0%" style="stop-color:#69F0AE;stop-opacity:1" />
      <stop offset="100%" style="stop-color:#00E676;stop-opacity:1" />
    </linearGradient>
    <filter id="glow">
      <feGaussianBlur stdDeviation="3" result="coloredBlur"/>
      <feMerge>
        <feMergeNode in="coloredBlur"/>
        <feMergeNode in="SourceGraphic"/>
      </feMerge>
    </filter>
    <filter id="softShadow" x="-20%" y="-20%" width="140%" height="140%">
      <feDropShadow dx="0" dy="8" stdDeviation="16" flood-color="#00E676" flood-opacity="0.15"/>
    </filter>
    <clipPath id="roundedSquare">
      <rect x="40" y="40" width="320" height="320" rx="72" ry="72"/>
    </clipPath>
  </defs>

  <!-- Background rounded square -->
  <rect x="40" y="40" width="320" height="320" rx="72" ry="72" fill="url(#bgGrad)"/>

  <!-- Subtle grid texture -->
  <g clip-path="url(#roundedSquare)" opacity="0.04">
    <line x1="40" y1="100" x2="360" y2="100" stroke="white" stroke-width="1"/>
    <line x1="40" y1="160" x2="360" y2="160" stroke="white" stroke-width="1"/>
    <line x1="40" y1="220" x2="360" y2="220" stroke="white" stroke-width="1"/>
    <line x1="40" y1="280" x2="360" y2="280" stroke="white" stroke-width="1"/>
    <line x1="100" y1="40" x2="100" y2="360" stroke="white" stroke-width="1"/>
    <line x1="160" y1="40" x2="160" y2="360" stroke="white" stroke-width="1"/>
    <line x1="220" y1="40" x2="220" y2="360" stroke="white" stroke-width="1"/>
    <line x1="280" y1="40" x2="280" y2="360" stroke="white" stroke-width="1"/>
  </g>

  <!-- Green glow circle behind icon -->
  <circle cx="200" cy="195" r="100" fill="#00E676" opacity="0.04"/>

  <!-- Main icon: stylized W shape made of people/pulse hybrid -->
  <!-- Three person silhouettes forming a W -->

  <!-- Left person -->
  <circle cx="130" cy="148" r="22" fill="url(#greenGrad2)" filter="url(#glow)"/>
  <path d="M88 235 Q88 205 130 205 Q172 205 172 235 L172 248 Q172 252 168 252 L92 252 Q88 252 88 248 Z" fill="url(#greenGrad2)" opacity="0.9"/>

  <!-- Center person (slightly raised, accent green) -->
  <circle cx="200" cy="138" r="26" fill="url(#greenGrad)" filter="url(#glow)"/>
  <path d="M154 230 Q154 196 200 196 Q246 196 246 230 L246 248 Q246 254 240 254 L160 254 Q154 254 154 248 Z" fill="url(#greenGrad)"/>

  <!-- Right person -->
  <circle cx="270" cy="148" r="22" fill="url(#greenGrad2)" filter="url(#glow)"/>
  <path d="M228 235 Q228 205 270 205 Q312 205 312 235 L312 248 Q312 252 308 252 L232 252 Q228 252 228 248 Z" fill="url(#greenGrad2)" opacity="0.9"/>

  <!-- Pulse/heartbeat line across bottom of people — representing workforce activity -->
  <polyline points="88,280 120,280 138,258 155,300 172,265 188,280 212,280 228,258 245,300 262,265 278,280 312,280"
    fill="none" stroke="url(#greenGrad)" stroke-width="3.5" stroke-linecap="round" stroke-linejoin="round" filter="url(#glow)" opacity="0.85"/>

  <!-- Bottom border accent line -->
  <rect x="140" y="318" width="120" height="4" rx="2" fill="url(#greenGrad)" opacity="0.5"/>

  <!-- Outer border glow -->
  <rect x="40" y="40" width="320" height="320" rx="72" ry="72" fill="none" stroke="url(#greenGrad)" stroke-width="1.5" opacity="0.25"/>
</svg>
